<?xml version="1.0" encoding="utf-8"?>
<!-- Generator: Adobe Illustrator 24.0.3, SVG Export Plug-In . SVG Version: 6.00 Build 0)  -->
<svg version="1.1" id="Layer_1" xmlns="http://www.w3.org/2000/svg" xmlns:xlink="http://www.w3.org/1999/xlink" x="0px" y="0px"
	 viewBox="0 0 183.4 74.9" style="enable-background:new 0 0 183.4 74.9;" xml:space="preserve">
<style type="text/css">
	.st0{fill-rule:evenodd;clip-rule:evenodd;fill:#FFFFFF;}
	.st1{fill:#FFFFFF;}
</style>
<path class="st0" d="M23.8,57.1l-1.2,2.6c-0.5,1.1-1.7,1.9-2.9,2c-3.3,0.2-5.9,2.8-6.1,6.1c-0.1,1.3-0.8,2.4-2,2.9L9,72l1.3,2.7
	l2.6-1.2c2.2-1,3.6-3.1,3.7-5.5c0.1-1.8,1.5-3.2,3.2-3.2c2.4-0.1,4.5-1.5,5.5-3.7l1.2-2.6L23.8,57.1z M67.7,43.9
	c1.2-0.4,2.5-0.2,3.5,0.7c2.4,2.2,6.2,2.2,8.6,0c0.9-0.9,2.3-1.1,3.5-0.7l2.7,1l1-2.8l-2.7-1c-2.2-0.8-4.7-0.3-6.5,1.3
	c-1.3,1.2-3.3,1.2-4.6,0c-1.8-1.6-4.3-2.1-6.5-1.3l-2.7,1l1,2.8L67.7,43.9z M9.2,43.6c1.3-1.2,3.3-1.2,4.6,0
	c1.8,1.6,4.3,2.1,6.5,1.3l2.7-1l-1-2.8l-2.7,1c-1.2,0.4-2.5,0.2-3.5-0.7c-2.4-2.2-6.2-2.2-8.6,0c-0.9,0.9-2.3,1.1-3.5,0.7l-2.7-1
	l-1,2.8l2.7,1C4.9,45.7,7.5,45.2,9.2,43.6z M27,43.5C27,34.4,34.4,27,43.5,27S60,34.4,60,43.5c0,1-0.1,2-0.3,3h3c0.2-1,0.2-2,0.2-3
	C63,32.7,54.3,24,43.5,24S24,32.7,24,43.5c0,9.7,7.2,17.8,16.5,19.3v-3C32.8,58.3,27,51.6,27,43.5z M14.5,12.6L13.3,10l-2.7,1.3
	l1.2,2.6c1,2.2,3.1,3.6,5.5,3.7c1.8,0.1,3.2,1.5,3.2,3.2c0.1,2.4,1.5,4.5,3.7,5.5l2.6,1.2l1.3-2.7l-2.6-1.2c-1.1-0.5-1.9-1.7-2-2.9
	c-0.2-3.3-2.8-5.9-6.1-6.1C16.2,14.5,15,13.8,14.5,12.6z M73.5,12.5l2.6-1.2l-1.3-2.7l-2.6,1.2c-2.2,1-3.6,3.1-3.7,5.5
	c-0.1,1.8-1.5,3.2-3.2,3.2c-2.4,0.1-4.5,1.5-5.5,3.7l-1.2,2.6l2.7,1.3l1.2-2.6c0.5-1.1,1.7-1.9,2.9-2c3.3-0.2,5.9-2.8,6.1-6.1
	C71.6,14.2,72.4,13,73.5,12.5z M43.9,3.7l1-2.7l-2.8-1l-1,2.7c-0.8,2.2-0.3,4.7,1.3,6.5c1.2,1.3,1.2,3.3,0,4.6
	c-1.6,1.8-2.1,4.3-1.3,6.5l1,2.7l2.8-1l-1-2.7c-0.4-1.2-0.2-2.5,0.7-3.5c2.2-2.4,2.2-6.2,0-8.6C43.8,6.3,43.5,4.9,43.9,3.7z"/>
<path class="st1" d="M171.7,74.9c1.2,0,2.4-0.2,3.4-0.5c1.1-0.3,2-0.7,2.8-1.3c0.8-0.6,1.4-1.2,1.9-1.9h0.1v3.3h3.6V62.8
	c0-1.5-0.4-2.7-1.1-3.7c-0.8-1.1-1.8-1.9-3.3-2.4s-3.1-0.8-5.2-0.8c-1.8,0-3.4,0.3-4.8,0.8c-1.3,0.5-2.4,1.2-3.3,2.2
	c-0.8,0.9-1.3,1.9-1.5,3.1v0.2h3.5l0.1-0.2c0.3-1,0.9-1.7,1.9-2.3s2.4-0.9,4.1-0.9c1.9,0,3.4,0.4,4.4,1.1c1.1,0.8,1.6,1.8,1.6,3.2
	V67c0,1-0.3,1.9-0.9,2.7c-0.6,0.8-1.5,1.4-2.6,1.8s-2.4,0.6-3.9,0.6s-2.8-0.2-3.7-0.7s-1.4-1.3-1.4-2.2l0,0c0-0.8,0.3-1.4,1-1.9
	s1.8-0.7,3.3-0.8l10.2-0.3v-2.5L171,63.8c-1.8,0-3.2,0.3-4.3,0.7s-1.9,1.1-2.4,1.8c-0.5,0.8-0.8,1.7-0.8,2.7l0,0
	c0,1.2,0.3,2.3,1,3.1s1.6,1.5,2.8,2C168.6,74.7,170,74.9,171.7,74.9z M148.5,66.3l9,8.2h4.9l-10.8-9.9V65l10.6-8.9h-4.7l-8.9,7.5h-2
	v-7.5H143v18.4h3.6v-8.2H148.5z M131.6,64.6c1.4,0,2.5,0.3,3.3,0.9s1.1,1.5,1.1,2.6l0,0c0,1.1-0.4,2-1.1,2.6s-1.8,0.9-3.3,0.9h-6.7
	v-7.1L131.6,64.6L131.6,64.6z M121.3,74.5H132c2.4,0,4.2-0.6,5.6-1.7s2.1-2.7,2.1-4.6l0,0c0-1.9-0.7-3.5-2.1-4.6
	c-1.4-1.1-3.2-1.7-5.6-1.7h-7.1v-5.7h-3.6V74.5z M117,74.5V56.1h-3.6v7.2c-0.4,0.4-1,0.7-1.7,1s-1.4,0.5-2.2,0.7s-1.7,0.2-2.5,0.2
	c-1.9,0-3.4-0.4-4.3-1.2s-1.4-2-1.4-3.6v-4.3h-3.6v4.6c0,2.4,0.8,4.3,2.3,5.6c1.5,1.3,3.6,1.9,6.3,1.9c1.3,0,2.6-0.2,3.9-0.5
	s2.3-0.8,3.2-1.5h0.1v8.3H117z M84.7,74.9c1.2,0,2.3-0.1,3.4-0.4c1.1-0.2,2-0.6,2.9-1.1s1.6-1,2.2-1.7s1.1-1.5,1.4-2.4l0.1-0.2h-3.6
	L91,69.2c-0.3,0.6-0.8,1.1-1.4,1.5s-1.4,0.7-2.2,0.9S85.8,72,84.8,72c-1.4,0-2.7-0.2-3.8-0.6c-1.1-0.4-2.1-1.1-2.8-2s-1-2.2-1-3.7
	v-0.6c0-1.4,0.3-2.6,0.9-3.5s1.4-1.7,2.5-2.1c1.1-0.5,2.4-0.7,3.9-0.7s2.7,0.2,3.7,0.7s1.8,1.2,2.4,2.1c0.6,0.9,0.9,2,0.9,3.2v1
	l1.4-2.1H75.4v2.6H95v-0.9c0-1.9-0.4-3.6-1.3-5.1c-0.8-1.4-2-2.6-3.6-3.4c-1.6-0.8-3.5-1.2-5.7-1.2s-4.1,0.4-5.7,1.2
	s-2.9,1.9-3.8,3.4c-0.9,1.4-1.4,3.1-1.4,5.1l0,0c0,2,0.4,3.7,1.3,5.2s2.2,2.5,3.8,3.3S82.4,74.9,84.7,74.9z M69.8,74.5V49.1H44.1
	v25.4h3.7V52.3h18.4v22.2H69.8z"/>
</svg>
